<svg width="60" height="60" viewBox="0 0 60 60" fill="none" xmlns="http://www.w3.org/2000/svg">
<path fill-rule="evenodd" clip-rule="evenodd" d="M30 60C46.5685 60 60 46.5685 60 30C60 13.4315 46.5685 0 30 0C13.4315 0 0 13.4315 0 30C0 46.5685 13.4315 60 30 60ZM25.8438 19.4453C26.4688 18.8516 26.7812 17.9531 26.7812 16.75C26.7812 15.5 26.4844 14.5938 25.8906 14.0312C25.3125 13.4688 24.4219 13.1875 23.2188 13.1875C22.0938 13.1875 21.2188 13.4688 20.5938 14.0312C19.9688 14.5938 19.6562 15.5 19.6562 16.75C19.6562 17.9531 19.9688 18.8516 20.5938 19.4453C21.2188 20.0234 22.0938 20.3125 23.2188 20.3125C24.3438 20.3125 25.2188 20.0234 25.8438 19.4453ZM19.6094 27.8125V40.75C19.6094 41.7031 19.6875 42.5781 19.8438 43.375C20.0156 44.1719 20.3516 44.8125 20.8516 45.2969C21.3672 45.7656 22.1406 46 23.1719 46C24.2031 46 24.9688 45.7656 25.4688 45.2969C25.9844 44.8125 26.3203 44.1719 26.4766 43.375C26.6484 42.5781 26.7344 41.7031 26.7344 40.75V27.8125C26.7344 26.875 26.6484 26.0078 26.4766 25.2109C26.3203 24.4141 25.9844 23.7734 25.4688 23.2891C24.9688 22.8047 24.2031 22.5625 23.1719 22.5625C22.1406 22.5625 21.3672 22.8047 20.8516 23.2891C20.3516 23.7734 20.0156 24.4141 19.8438 25.2109C19.6875 26.0078 19.6094 26.875 19.6094 27.8125ZM33.9531 18.3906V40.75C33.9531 41.7031 34.0312 42.5781 34.1875 43.375C34.3594 44.1719 34.7031 44.8125 35.2188 45.2969C35.7344 45.7656 36.5 46 37.5156 46C38.5469 46 39.3125 45.7656 39.8125 45.2969C40.3281 44.8125 40.6641 44.1719 40.8203 43.375C40.9922 42.5781 41.0781 41.7031 41.0781 40.75V18.3906C41.0781 17.4375 40.9922 16.5703 40.8203 15.7891C40.6641 14.9922 40.3281 14.3594 39.8125 13.8906C39.3125 13.4219 38.5469 13.1875 37.5156 13.1875C36.5 13.1875 35.7344 13.4297 35.2188 13.9141C34.7031 14.3828 34.3594 15.0078 34.1875 15.7891C34.0312 16.5703 33.9531 17.4375 33.9531 18.3906Z" fill="#1ED761"/>
</svg>
