<svg width="21" height="12" viewBox="0 0 21 12" fill="none" xmlns="http://www.w3.org/2000/svg">
<path d="M19.313 1.273C19.4085 1.18278 19.5208 1.11225 19.6435 1.06544C19.7662 1.01862 19.897 0.996439 20.0283 1.00015C20.1596 1.00387 20.2889 1.03341 20.4088 1.08709C20.5286 1.14077 20.6368 1.21753 20.727 1.313C20.8172 1.40847 20.8877 1.52078 20.9346 1.64351C20.9814 1.76624 21.0036 1.89698 20.9998 2.02829C20.9961 2.15959 20.9666 2.28887 20.9129 2.40876C20.8592 2.52865 20.7825 2.63678 20.687 2.727L11.687 11.227C11.5013 11.4025 11.2555 11.5003 11 11.5003C10.7445 11.5003 10.4987 11.4025 10.313 11.227L1.31199 2.727C1.21443 2.63738 1.13565 2.52926 1.08023 2.40894C1.0248 2.28861 0.99384 2.15847 0.989136 2.02608C0.984432 1.89368 1.00608 1.76167 1.05283 1.63772C1.09957 1.51376 1.17048 1.40033 1.26144 1.30401C1.35239 1.20768 1.46158 1.1304 1.58265 1.07663C1.70373 1.02286 1.83429 0.993692 1.96673 0.990807C2.09918 0.987923 2.23088 1.01138 2.35418 1.05983C2.47748 1.10827 2.58993 1.18073 2.68499 1.273L11 9.125L19.313 1.273Z" fill="white"/>
</svg>
